<svg width="277.1" height="109.2" viewBox="0 0 277.1 109.2" xmlns="http://www.w3.org/2000/svg"><g id="svgGroup" stroke-linecap="round" fill-rule="nonzero" font-size="9pt" stroke="#97010b" stroke-width="0.25mm" fill="#97010b" style="stroke:#97010b;stroke-width:0.25mm;fill:#97010b"><path d="M 84.5 61.1 L 38.8 9 L 44.5 3.9 L 91.1 56.9 Q 93.4 59.6 95.75 61.5 Q 98.1 63.4 101.2 63.4 Q 104.7 63.4 106.65 61.45 Q 108.6 59.5 108.6 57 Q 108.6 55.9 108.2 54.95 Q 107.8 54 107.2 53.3 L 64.9 5.1 L 70.6 0 L 128.1 65.5 L 122.2 70.5 L 114.1 61.1 L 113.8 61.1 Q 113.4 63.2 111.9 65.5 Q 110.4 67.8 107.7 69.4 Q 105 71 100.8 71 Q 97 71 93.15 68.8 Q 89.3 66.6 84.5 61.1 Z M 212.2 62.3 L 211.8 62.4 Q 212.4 64.9 212.8 68.05 Q 213.2 71.2 213.2 74.8 Q 213.2 80.6 212.45 86.4 Q 211.7 92.2 210.1 97.9 Q 208.5 103.6 206 109.2 L 199 107.4 Q 200.5 103.8 202.15 98.35 Q 203.8 92.9 204.95 86.05 Q 206.1 79.2 206.1 71.5 Q 206.1 62.5 204.65 55.5 Q 203.2 48.5 200.45 42.15 Q 197.7 35.8 193.8 28.7 L 199.8 24.5 Q 201.3 26.6 202.6 28.95 Q 203.9 31.3 205.1 33.9 Q 206.3 36.5 207.3 39.2 L 207.8 39.2 Q 209 35.5 211.7 32.8 Q 214.4 30.1 218.2 28.6 Q 222 27.1 226.4 27.1 Q 233.5 27.1 238.4 29.9 Q 243.3 32.7 245.85 37.5 Q 248.4 42.3 248.4 48.4 Q 248.4 55.2 245.5 60 Q 242.6 64.8 237.75 67.25 Q 232.9 69.7 227.2 69.7 Q 221.9 69.7 218.3 67.85 Q 214.7 66 212.2 62.3 Z M 227.2 62.4 Q 231 62.4 234.15 60.8 Q 237.3 59.2 239.15 56.05 Q 241 52.9 241 48.3 Q 241 42 237.35 38.2 Q 233.7 34.4 226.4 34.4 Q 222 34.4 218.55 36 Q 215.1 37.6 213.1 40.45 Q 211.1 43.3 211.1 46.9 Q 211.1 49.1 212.1 51.75 Q 213.1 54.4 215.15 56.85 Q 217.2 59.3 220.2 60.85 Q 223.2 62.4 227.2 62.4 Z M 42.2 1.3 L 42.7 1.3 Q 48 5.6 49.9 9.95 Q 51.8 14.3 51.8 19.5 Q 51.8 22 51.4 24.75 Q 51 27.5 50 31.1 Q 49 34.7 47.1 39.7 Q 44.5 46.7 43.85 50.75 Q 43.2 54.8 43.2 57.9 Q 43.2 61.6 43.75 65.4 Q 44.3 69.2 46.3 74.6 L 41.2 78.3 L 39.9 78.3 Q 37.4 73.7 36.55 68.55 Q 35.7 63.4 35.7 59 Q 35.7 53.9 37 48.3 Q 38.3 42.7 40.8 36.7 Q 42.8 32 43.75 28 Q 44.7 24 44.7 20.6 Q 44.7 16.3 42.9 13.5 Q 41.1 10.7 37.4 7 L 42.2 1.3 Z M 267.5 1.3 L 268 1.3 Q 273.3 5.6 275.2 9.95 Q 277.1 14.3 277.1 19.5 Q 277.1 22 276.7 24.75 Q 276.3 27.5 275.3 31.1 Q 274.3 34.7 272.4 39.7 Q 269.8 46.7 269.15 50.75 Q 268.5 54.8 268.5 57.9 Q 268.5 61.6 269.05 65.4 Q 269.6 69.2 271.6 74.6 L 266.5 78.3 L 265.2 78.3 Q 262.7 73.7 261.85 68.55 Q 261 63.4 261 59 Q 261 53.9 262.3 48.3 Q 263.6 42.7 266.1 36.7 Q 268.1 32 269.05 28 Q 270 24 270 20.6 Q 270 16.3 268.2 13.5 Q 266.4 10.7 262.7 7 L 267.5 1.3 Z M 139.1 49.9 L 145.5 49.5 Q 145.6 53.7 147.35 56.6 Q 149.1 59.5 152.6 60.95 Q 156.1 62.4 161.2 62.4 Q 163.9 62.4 165.25 62.3 Q 166.6 62.2 167.9 62.1 Q 168.3 61.4 169 59.6 Q 169.7 57.8 170.5 55.75 Q 171.3 53.7 171.8 52.5 Q 172.7 50.4 173.9 49.7 Q 175.1 49 176.5 49 Q 178.3 49 179.4 50.35 Q 180.5 51.7 181.05 53.7 Q 181.6 55.7 181.6 57.9 Q 181.6 62.2 179.2 65.15 Q 176.8 68.1 171.3 69.3 Q 169.3 69.7 165.9 69.85 Q 162.5 70 159.7 70 Q 153.9 70 149.95 68.55 Q 146 67.1 143.55 64.55 Q 141.1 62 140 58.8 Q 138.9 55.6 138.9 52.2 Q 138.9 51.9 138.95 51.1 Q 139 50.3 139.1 49.9 Z M 7.2 82.3 L 2.5 78.2 Q 4.8 75.8 6.65 73.2 Q 8.5 70.6 10 68.3 Q 9.3 67.8 8.65 67.2 Q 8 66.6 7.3 66.1 Q 3.6 63.1 1.8 60.4 Q 0 57.7 0 54 Q 0 51.4 1.3 48.45 Q 2.6 45.5 5.15 43.4 Q 7.7 41.3 11.4 41.3 Q 15 41.3 17.6 43.3 Q 20.2 45.3 21.6 48.6 Q 23 51.9 23 55.8 Q 23 59.3 21.6 62.8 Q 20.2 66.3 17.9 69.65 Q 15.6 73 12.8 76.2 Q 10 79.4 7.2 82.3 Z M 10.1 60.4 L 12.3 62.4 Q 13.8 60.6 14.65 58.7 Q 15.5 56.8 15.5 55.2 Q 15.5 52.9 14.35 51.3 Q 13.2 49.7 11.1 49.7 Q 9 49.7 8 51.35 Q 7 53 7 54.6 Q 7 56.4 7.75 57.65 Q 8.5 58.9 10.1 60.4 Z M 4.7 95.1 Q 4.7 92.3 6 90.85 Q 7.3 89.4 9.6 89.4 Q 12.1 89.4 13.45 90.85 Q 14.8 92.3 14.8 95.1 Q 14.8 97.9 13.45 99.3 Q 12.1 100.7 9.6 100.7 Q 7.4 100.7 6.05 99.4 Q 4.7 98.1 4.7 95.1 Z M 56 11.4 L 59 4.3 Q 59.5 3.2 60.7 3.2 Q 61.4 3.2 62 3.6 Q 62.6 4 62.6 4.8 Q 62.6 5.3 62.3 6.1 L 59.3 13.2 Q 58.8 14.3 57.6 14.3 Q 56.9 14.3 56.3 13.85 Q 55.7 13.4 55.7 12.7 Q 55.7 12.1 56 11.4 Z M 54 78.4 L 57 71.3 Q 57.5 70.2 58.7 70.2 Q 59.4 70.2 60 70.6 Q 60.6 71 60.6 71.8 Q 60.6 72.3 60.3 73.1 L 57.3 80.2 Q 56.8 81.3 55.6 81.3 Q 54.9 81.3 54.3 80.85 Q 53.7 80.4 53.7 79.7 Q 53.7 79.1 54 78.4 Z M 192 73.1 L 189 80.2 Q 188.5 81.3 187.3 81.3 Q 186.6 81.3 186 80.85 Q 185.4 80.4 185.4 79.7 Q 185.4 79.1 185.7 78.4 L 188.7 71.3 Q 189.2 70.2 190.4 70.2 Q 191.1 70.2 191.7 70.6 Q 192.3 71 192.3 71.8 Q 192.3 72.3 192 73.1 Z M 251.6 77.8 L 248.6 84.9 Q 248.1 86 246.9 86 Q 246.2 86 245.6 85.55 Q 245 85.1 245 84.4 Q 245 83.8 245.3 83.1 L 248.3 76 Q 248.8 74.9 250 74.9 Q 250.7 74.9 251.3 75.3 Q 251.9 75.7 251.9 76.5 Q 251.9 77 251.6 77.8 Z M 262.7 73.1 L 259.7 80.2 Q 259.2 81.3 258 81.3 Q 257.3 81.3 256.7 80.85 Q 256.1 80.4 256.1 79.7 Q 256.1 79.1 256.4 78.4 L 259.4 71.3 Q 259.9 70.2 261.1 70.2 Q 261.8 70.2 262.4 70.6 Q 263 71 263 71.8 Q 263 72.3 262.7 73.1 Z" vector-effect="non-scaling-stroke"/></g></svg>